# AST/ASF file generated using VICON BodyLanguage
# -----------------------------------------------
:version 1.10
:name VICON
:units
  mass 1.0
  length 0.45
  angle deg
:documentation
   .ast/.asf automatically generated from VICON data using
   VICON BodyBuilder and BodyLanguage model FoxedUp or BRILLIANT.MOD
:root
   order TX TY TZ RX RY RZ
   axis XYZ
   position 0 0 0  
   orientation 0 0 0 
:bonedata
  begin
     id 1 
     name lhipjoint
     direction 0.650112 -0.723553 0.232005 
     length 2.45805 
     axis 0 0 0  XYZ
  end
  begin
     id 2 
     name lfemur
     direction 0.34202 -0.939693 0  
     length 7.00073  
     axis 0 0 20  XYZ
    dof rx ry rz
    limits (-160.0 20.0)
           (-70.0 70.0)
           (-60.0 70.0)
  end
  begin
     id 3 
     name ltibia
     direction 0.34202 -0.939693 0   
     length 7.8748   
     axis 0 0 20   XYZ
    dof rx
    limits (-10.0 170.0)
  end
  begin
     id 4 
     name lfoot
     direction 0.0542825 -0.14914 0.987325   
     length 1.75978   
     axis -90 7.62852e-016 20   XYZ
    dof rx rz
    limits (-45.0 90.0)
           (-70.0 20.0)
  end
  begin
     id 5 
     name ltoes
     direction 1.53509e-011 -4.21906e-011 1   
     length 0.893912   
     axis -90 7.62852e-016 20   XYZ
    dof rx
    limits (-90.0 20.0)
  end
  begin
     id 6 
     name rhipjoint
     direction -0.637897 -0.733345 0.235145   
     length 2.42522  
     axis 0 0 0  XYZ 
  end
  begin
     id 7 
     name rfemur
     direction -0.34202 -0.939693 0   
     length 7.02549   
     axis 0 0 -20   XYZ
    dof rx ry rz
    limits (-160.0 20.0)
           (-70.0 70.0)
           (-70.0 60.0)
  end
  begin
     id 8 
     name rtibia
     direction -0.34202 -0.939693 0   
     length 7.71512   
     axis 0 0 -20   XYZ
    dof rx
    limits (-10.0 170.0)
 end
 begin
     id 9 
     name rfoot
     direction -0.0822618 -0.226012 0.970645   
     length 1.90014  
     axis -90 -7.62852e-016 -20   XYZ
    dof rx rz
    limits (-45.0 90.0)
           (-20.0 70.0)
  end
  begin
     id 10 
     name rtoes
     direction -1.53542e-011 -4.21872e-011 1   
     length 0.957341   
     axis -90 -7.62852e-016 -20   XYZ
    dof rx
    limits (-90.0 20.0)
  end
  begin
     id 11 
     name lowerback
     direction -0.0022947 0.999774 -0.0211557   
     length 1.89909   
     axis 0 0 0   XYZ
    dof rx ry rz
    limits (-20.0 45.0)
           (-30.0 30.0)
           (-30.0 30.0)
  end
  begin
     id 12 
     name upperback
     direction 0.0107737 0.998635 0.0511027   
     length 1.8853   
     axis 0 0 0   XYZ
    dof rx ry rz
    limits (-20.0 45.0)
           (-30.0 30.0)
           (-30.0 30.0)
  end
  begin
     id 13 
     name thorax
     direction 0.011824 0.998136 0.0598754   
     length 1.88911   
     axis 0 0 0   XYZ
    dof rx ry rz
    limits (-20.0 45.0)
           (-30.0 30.0)
           (-30.0 30.0)
  end
  begin
     id 14 
     name lowerneck
     direction -0.0685355 0.990319 0.120714   
     length 1.91222   
     axis 0 0 0   XYZ
    dof rx ry rz
    limits (-20.0 45.0)
           (-30.0 30.0)
           (-30.0 30.0)
  end
  begin
     id 15 
     name upperneck
     direction 0.0886204 0.955665 -0.280805   
     length 1.92526   
     axis 0 0 0   XYZ
    dof rx ry rz
    limits (-20.0 45.0)
           (-30.0 30.0)
           (-30.0 30.0)
  end
  begin
     id 16
     name head
     direction 0.0233423 0.993502 -0.111393  
     length 1.96056  
     axis 0 0 0   XYZ
    dof rx ry rz
    limits (-20.0 45.0)
           (-30.0 30.0)
           (-30.0 30.0)
  end
  begin
     id 17 
     name lclavicle
     direction 0.941873 0.32922 0.0670041  
     length 3.31705  
     axis 0 0 0   XYZ
    dof ry rz
    limits (-20.0 10.0)
           (0.0 20.0)
  end
  begin
     id 18 
     name lhumerus
     direction 1 -4.4898e-011 3.38707e-028   
     length 5.29277   
     axis 180 -30 -90   XYZ
    dof rx ry rz
    limits (-60.0 90.0)
           (-90.0 90.0)
           (-90.0 90.0)
  end
  begin
     id 19
     name lradius
     direction 1 -4.48952e-011 1.63213e-028   
     length 2.85226   
     axis 180 -30 -90   XYZ
    dof rx
    limits (-10.0 170.0)
  end
  begin
     id 20
     name lwrist
     direction 1 -4.49001e-011 1.27856e-027   
     length 1.42613   
     axis -1.61767e-015 90 90   XYZ
    dof ry
    limits (-180.0 0.0)
 end
  begin
     id 21 
     name lhand
     direction 1 -4.48976e-011 2.55931e-027   
     length 0.602097   
     axis -1.63363e-015 90 90   XYZ
    dof rx rz
    limits (-90.0 90.0)
           (-45.0 45.0)
  end
  begin
     id 22 
     name lfingers
     direction 1 -4.48986e-011 5.11684e-027   
     length 0.485426   
     axis -3.26723e-015 90 90   XYZ
    dof rx
    limits (0.0 90.0)
  end
  begin
     id 23
     name lthumb
     direction 0.707107 -6.34915e-011 0.707107   
     length 0.696978   
     axis -90 45 -2.25915e-014   XYZ
    dof rx rz
    limits (-45.0 45.0)
           (-45.0 45.0)
  end
  begin
     id 24 
     name rclavicle
     direction -0.939974 0.327078 0.0973096   
     length 3.10337  
     axis 0 0 0   XYZ 
    dof ry rz
    limits (-10.0 20.0)
           (-20.0 0.0)
  end
  begin
     id 25 
     name rhumerus
     direction -1 -4.48975e-011 1.83745e-027  
     length 5.13304   
     axis 180 30 90   XYZ
    dof rx ry rz
    limits (-90.0 60.0)
           (-90.0 90.0)
           (-90.0 90.0)
  end
  begin
     id 26 
     name rradius
     direction -1 -4.48977e-011 7.1775e-029   
     length 2.74305   
     axis 180 30 90   XYZ
    dof rx
    limits (-10.0 170.0)
  end
  begin
     id 27 
     name rwrist
     direction -1 -4.48977e-011 1.27963e-027   
     length 1.37152   
     axis -1.61767e-015 -90 -90   XYZ
    dof ry
    limits (-180.0 0.0)
  end
  begin
     id 28
     name rhand
     direction -1 -4.4888e-011 2.56782e-027   
     length 0.767976   
     axis -1.63363e-015 -90 -90   XYZ
    dof rx rz
    limits (-90.0 90.0)
           (-45.0 45.0)
  end
  begin
     id 29
     name rfingers
     direction -1 -4.48947e-011 5.12384e-027   
     length 0.619162   
     axis -3.26723e-015 -90 -90   XYZ
    dof rx
    limits (0.0 90.0)
  end
  begin
     id 30
     name rthumb
     direction -0.707107 -6.34857e-011 0.707107   
     length 0.888997   
     axis -90 -45 2.25915e-014   XYZ
    dof rx rz
    limits (-45.0 45.0)
           (-45.0 45.0)
  end
:hierarchy
  begin
    root lhipjoint rhipjoint lowerback
    lhipjoint lfemur
    lfemur ltibia
    ltibia lfoot
    lfoot ltoes
    rhipjoint rfemur
    rfemur rtibia
    rtibia rfoot
    rfoot rtoes
    lowerback upperback
    upperback thorax
    thorax lowerneck lclavicle rclavicle
    lowerneck upperneck
    upperneck head
    lclavicle lhumerus
    lhumerus lradius
    lradius lwrist
    lwrist lhand lthumb
    lhand lfingers
    rclavicle rhumerus
    rhumerus rradius
    rradius rwrist
    rwrist rhand rthumb
    rhand rfingers
  end

#!OML:ASF F:\VICON\USERDATA\INSTALL\rory3\rory3.ASF
:FULLY-SPECIFIED
:DEGREES
892
root 0.170639 17.1248 0.941578 2.07718 0.115107 -2.37937
lowerback -4.08845 1.34678 0.779176
upperback -1.7369 1.75536 1.18978
thorax 0.494926 0.87829 0.860179
lowerneck -20.8571 -11.0803 -17.4198
upperneck 17.3539 -13.2265 14.0021
head 11.2313 -5.74432 5.6811
rclavicle 8.66577e-016 8.10048e-015
rhumerus -334.433 19.1663 -422.763
rradius 119.147
rwrist -18.0995
rhand -23.7429 11.1951
rfingers 7.12502
rthumb 2.72564 -18.7672
lclavicle 8.66577e-016 8.10048e-015
lhumerus 191.669 -69.2083 -144.167
lradius 101.478
lwrist 1.9714
lhand -21.8391 5.28686
lfingers 7.12502
lthumb 4.56411 35.2177
rfemur -3.5674 9.56887 20.7787
rtibia 20.585
rfoot -17.6507 -8.53006
rtoes -13.0893
lfemur -8.63331 -10.9391 -15.6318
ltibia 28.3153
lfoot -20.4339 5.51891
ltoes -15.6394
893
root 0.172561 17.1242 0.942292 2.10159 0.119825 -2.35073
lowerback -4.12978 1.29588 0.768389
upperback -1.81584 1.68796 1.25454
thorax 0.435357 0.84488 0.929436
lowerneck -20.5148 -10.9016 -17.4239
upperneck 17.3213 -13.0129 13.9427
head 11.1139 -5.67021 5.71177
rclavicle -1.03057e-014 -7.25564e-015
rhumerus -334.598 18.276 -423.333
rradius 119.308
rwrist -17.9491
rhand -23.4392 11.0305
rfingers 7.12502
rthumb 3.01894 -18.9279
lclavicle -1.03057e-014 -7.25564e-015
lhumerus 192.398 -69.1653 -144.846
lradius 101.418
lwrist 1.76436
lhand -21.821 5.42106
lfingers 7.12502
lthumb 4.58162 35.3515
rfemur -3.6145 9.55301 20.7375
rtibia 20.63
rfoot -17.6542 -8.60346
rtoes -13.3173
lfemur -8.66582 -10.8953 -15.6615
ltibia 28.3234
lfoot -20.3831 5.40848
ltoes -15.3854
894
root 0.174249 17.1244 0.942569 2.11259 0.100955 -2.28367
lowerback -4.12637 1.28168 0.715493
upperback -1.94218 1.67271 1.29932
thorax 0.301177 0.837786 1.00225
lowerneck -20.0412 -10.7664 -17.5487
upperneck 17.2937 -12.8675 13.9559
head 11.0016 -5.63277 5.77842
rclavicle 2.11084e-014 1.09332e-014
rhumerus -334.933 17.515 -423.818
rradius 119.535
rwrist -17.9275
rhand -23.733 11.0306
rfingers 7.12502
rthumb 2.73523 -18.9316
lclavicle 2.11084e-014 1.09332e-014
lhumerus 193.026 -68.9853 -145.42
lradius 101.366
lwrist 1.56762
lhand -21.797 5.40096
lfingers 7.12502
lthumb 4.60479 35.3309
rfemur -3.65319 9.56475 20.6516
rtibia 20.6705
rfoot -17.6764 -8.57374
rtoes -13.4497
lfemur -8.66969 -10.8684 -15.7417
ltibia 28.3126
lfoot -20.4397 5.30797
ltoes -14.7045
895
root 0.175418 17.1236 0.94325 2.10004 0.0603788 -2.2843
lowerback -4.1412 1.3332 0.761385
upperback -2.03713 1.74081 1.31158
thorax 0.212183 0.871664 0.990951
lowerneck -19.6278 -10.6928 -17.5958
upperneck 17.3277 -12.8264 13.9482
head 10.9337 -5.6366 5.80322
rclavicle 6.57232e-015 -4.07509e-015
rhumerus -335.336 16.7252 -424.238
rradius 119.743
rwrist -17.8415
rhand -24.4643 10.9736
rfingers 7.12502
rthumb 2.02899 -18.9965
lclavicle 6.57232e-015 -4.07509e-015
lhumerus 193.087 -68.7212 -145.47
lradius 101.337
lwrist 1.45684
lhand -21.8254 5.43431
lfingers 7.12502
lthumb 4.57741 35.3649
rfemur -3.66103 9.60328 20.6526
rtibia 20.7073
rfoot -17.6571 -8.56154
rtoes -13.3167
lfemur -8.62918 -10.841 -15.7486
ltibia 28.2866
lfoot -20.478 5.17908
ltoes -13.8736
896
root 0.177362 17.1246 0.944828 2.12032 0.0327853 -2.25015
lowerback -4.19571 1.36157 0.778638
upperback -2.05437 1.77713 1.34108
thorax 0.224036 0.889864 1.01426
lowerneck -19.5335 -10.6578 -17.5995
upperneck 17.4365 -12.7757 13.8321
head 10.9375 -5.63006 5.77473
rclavicle 7.56624e-015 2.98177e-016
rhumerus -335.547 15.9074 -424.617
rradius 119.948
rwrist -17.8459
rhand -24.9132 11.0695
rfingers 7.12502
rthumb 1.59538 -18.9042
lclavicle 7.56624e-015 2.98177e-016
lhumerus 193.062 -68.6311 -145.374
lradius 101.299
lwrist 1.44278
lhand -21.8507 5.45059
lfingers 7.12502
lthumb 4.55296 35.3817
rfemur -3.69794 9.64709 20.6018
rtibia 20.7506
rfoot -17.6961 -8.56259
rtoes -12.9818
lfemur -8.6248 -10.8266 -15.7949
ltibia 28.256
lfoot -20.3758 5.28923
ltoes -14.6612
897
root 0.179892 17.1257 0.94668 2.11942 0.0182313 -2.21287
lowerback -4.2089 1.31249 0.766345
upperback -2.09364 1.71199 1.45393
thorax 0.187994 0.857962 1.13377
lowerneck -19.3907 -10.5487 -17.7138
upperneck 17.533 -12.5829 13.6787
head 10.9075 -5.57257 5.77903
rclavicle 2.25372e-014 2.38542e-014
rhumerus -335.656 15.2494 -425.017
rradius 120.112
rwrist -17.9569
rhand -24.8529 11.0363
rfingers 7.12502
rthumb 1.65364 -18.937
lclavicle 2.25372e-014 2.38542e-014
lhumerus 193.765 -68.6203 -145.899
lradius 101.208
lwrist 1.49869
lhand -21.9834 5.60391
lfingers 7.12502
lthumb 4.42483 35.5377
rfemur -3.69308 9.65701 20.5466
rtibia 20.7609
rfoot -17.7152 -8.51992
rtoes -12.803
lfemur -8.60537 -10.8295 -15.8528
ltibia 28.2498
lfoot -20.3619 5.37113
ltoes -15.2926
